<svg xmlns="http://www.w3.org/2000/svg" viewBox="0 0 200 128" role="img" aria-label="large boat">
  <defs>
    <linearGradient id="largeHull" x1="0" x2="1" y1="0" y2="1">
      <stop offset="0" stop-color="#38bdf8"/>
      <stop offset="1" stop-color="#2563eb"/>
    </linearGradient>
  </defs>
  <path d="M26 60h148c-8 29-30 48-66 54H76c-26-6-43-24-50-54z" fill="url(#largeHull)" stroke="#1f2937" stroke-width="5" stroke-linejoin="round"/>
  <path d="M52 60l19-28h61l19 28z" fill="#e0f2fe" stroke="#1f2937" stroke-width="5" stroke-linejoin="round"/>
  <path d="M82 32v28M103 32v28M124 32v28" stroke="#1f2937" stroke-width="4" stroke-linecap="round"/>
  <circle cx="67" cy="82" r="8" fill="#fef3c7" stroke="#1f2937" stroke-width="4"/>
  <circle cx="92" cy="82" r="8" fill="#dcfce7" stroke="#1f2937" stroke-width="4"/>
  <circle cx="117" cy="82" r="8" fill="#fee2e2" stroke="#1f2937" stroke-width="4"/>
  <circle cx="142" cy="82" r="8" fill="#ede9fe" stroke="#1f2937" stroke-width="4"/>
  <path d="M18 112c21-11 41-11 62 0s41 11 62 0 30-8 43-3" fill="none" stroke="#22c55e" stroke-width="7" stroke-linecap="round"/>
</svg>
