<svg xmlns="http://www.w3.org/2000/svg" viewBox="0 0 160 128" role="img" aria-label="book stack">
  <rect x="28" y="78" width="102" height="24" rx="7" fill="#60a5fa" stroke="#1f2937" stroke-width="5"/>
  <path d="M45 102h80c8 0 13 5 13 12H43c-8 0-13-5-13-12z" fill="#dbeafe" stroke="#1f2937" stroke-width="5" stroke-linejoin="round"/>
  <rect x="38" y="52" width="100" height="25" rx="7" fill="#f472b6" stroke="#1f2937" stroke-width="5"/>
  <path d="M55 77h76c8 0 13 5 13 12H53c-8 0-13-5-13-12z" fill="#fce7f3" stroke="#1f2937" stroke-width="5" stroke-linejoin="round"/>
  <rect x="24" y="27" width="103" height="25" rx="7" fill="#34d399" stroke="#1f2937" stroke-width="5"/>
  <path d="M41 52h78c8 0 13 5 13 12H39c-8 0-13-5-13-12z" fill="#dcfce7" stroke="#1f2937" stroke-width="5" stroke-linejoin="round"/>
  <path d="M55 35h45M67 60h44M58 86h46" stroke="#ffffff" stroke-width="4" stroke-linecap="round" opacity=".8"/>
</svg>
