<svg xmlns="http://www.w3.org/2000/svg" viewBox="0 0 180 128" role="img" aria-label="school bus">
  <defs>
    <linearGradient id="busBody" x1="0" x2="1" y1="0" y2="1">
      <stop offset="0" stop-color="#fde68a"/>
      <stop offset="1" stop-color="#f59e0b"/>
    </linearGradient>
  </defs>
  <path d="M25 38c0-11 8-19 19-19h74c13 0 23 7 30 19l9 17v42H25z" fill="url(#busBody)" stroke="#1f2937" stroke-width="5" stroke-linejoin="round"/>
  <path d="M44 35h28v27H36V43c0-5 3-8 8-8zM81 35h26v27H81zM116 35h16c4 0 8 3 11 8l10 19h-37z" fill="#dbeafe" stroke="#1f2937" stroke-width="4" stroke-linejoin="round"/>
  <path d="M25 76h132" stroke="#1f2937" stroke-width="4" stroke-linecap="round"/>
  <circle cx="56" cy="99" r="16" fill="#334155" stroke="#1f2937" stroke-width="4"/>
  <circle cx="56" cy="99" r="7" fill="#e5e7eb"/>
  <circle cx="126" cy="99" r="16" fill="#334155" stroke="#1f2937" stroke-width="4"/>
  <circle cx="126" cy="99" r="7" fill="#e5e7eb"/>
  <path d="M35 69h22M70 69h22M106 69h22" stroke="#92400e" stroke-width="4" stroke-linecap="round"/>
</svg>
