<svg xmlns="http://www.w3.org/2000/svg" viewBox="0 0 128 128" role="img" aria-label="rabbit">
  <defs>
    <linearGradient id="fur" x1="0" x2="1" y1="0" y2="1">
      <stop offset="0" stop-color="#ffffff"/>
      <stop offset="1" stop-color="#dbeafe"/>
    </linearGradient>
  </defs>
  <path d="M58 30C47 3 31 7 35 35c-21-2-26 22-8 32-8 25 7 48 37 48s45-22 38-48c18-10 13-34-8-32C98 7 82 3 71 30z" fill="url(#fur)" stroke="#2f3440" stroke-width="4" stroke-linejoin="round"/>
  <path d="M44 30c-5-17-10-18-8-1M85 30c5-17 10-18 8-1" fill="none" stroke="#f9a8d4" stroke-width="7" stroke-linecap="round"/>
  <circle cx="51" cy="57" r="4" fill="#111827"/>
  <circle cx="78" cy="57" r="4" fill="#111827"/>
  <path d="M64 65l-6 5h12z" fill="#f472b6" stroke="#2f3440" stroke-width="3" stroke-linejoin="round"/>
  <path d="M52 76c7 7 18 7 25 0M35 72H14M39 80H17M89 72h21M85 80h22" fill="none" stroke="#2f3440" stroke-width="4" stroke-linecap="round"/>
  <path d="M41 101c-7 8-14 12-24 11M87 101c7 8 14 12 24 11" fill="none" stroke="#2f3440" stroke-width="5" stroke-linecap="round"/>
</svg>
